<svg width="28" height="28" viewBox="0 0 28 28" fill="none" xmlns="http://www.w3.org/2000/svg">
<path fill-rule="evenodd" clip-rule="evenodd" d="M0 11C0 16.1419 3.40237 20.4598 8 21.665V19.5772C4.55261 18.4291 2 15.0657 2 11C2 5.96046 5.92179 2 10.6083 2C14.5839 2 18.0091 4.85004 18.9569 8.79115L18.9599 8.78992C19.0937 9.33674 19.1791 9.90367 19.2108 10.4855C19.8339 10.1732 20.5272 10 21.2493 10C23.8053 10 26 12.1696 26 15C26 17.8105 23.8359 19.9695 21.3029 19.9996V20H21V21.9953C21.0827 21.9984 21.1658 22 21.2493 22C24.9776 22 28 18.866 28 15C28 11.134 24.9776 8.00001 21.2493 8.00001C21.1054 8.00001 20.9626 8.00467 20.821 8.01387C19.5661 3.38976 15.469 0 10.6083 0C4.74949 0 0 4.92487 0 11ZM15.168 14.4453L11.168 20.4453L10.1315 22H12H15.0442L11.856 26.4145L13.4773 27.5855L17.8107 21.5855L18.9558 20H17H13.8685L16.8321 15.5547L15.168 14.4453Z" fill="white"/>
</svg>
